<svg width="230" height="63" viewBox="0 0 230 63" fill="none" xmlns="http://www.w3.org/2000/svg">
<g clip-path="url(#clip0_13_110)">
<path d="M37.4976 25.2129V31.5167C37.4976 28.0715 34.7448 25.2704 31.3294 25.2129H37.4976Z" fill="#1A00F3"/>
<path d="M37.4976 31.5167V56.6961C37.4976 60.1772 34.6876 63 31.2222 63C27.7567 63 24.9444 60.1772 24.9444 56.6961V46.1259L10.7156 61.1541C8.26553 63.6153 4.29007 63.6153 1.83996 61.1541C-0.610143 58.6929 -0.612526 54.6994 1.83996 52.2358L15.4562 37.8229H6.2778C2.81238 37.8229 0 35.0002 0 31.5167C0 28.0332 2.81238 25.2129 6.2778 25.2129H31.1149C27.6971 25.268 24.9444 28.0715 24.9444 31.5167C24.9444 34.7824 27.4135 37.4686 30.5786 37.7894H31.8633C35.0284 37.4686 37.4976 34.7824 37.4976 31.5167Z" fill="#1A00F3"/>
<path d="M24.9444 37.7894V31.5167C24.9444 34.7824 27.4135 37.4686 30.5786 37.7894H24.9444Z" fill="#1A00F3"/>
<path d="M62.4419 31.4832C62.4419 34.9667 59.6319 37.7895 56.1641 37.7895H31.8633C35.0284 37.4686 37.4976 34.7824 37.4976 31.5168C37.4976 28.0716 34.7448 25.2704 31.3294 25.2129H31.1149C27.6971 25.268 24.9444 28.0716 24.9444 31.5168V6.30622C24.9444 2.82272 27.7543 0 31.2221 0C34.69 0 37.4976 2.82272 37.4976 6.30622V16.8741L51.7263 1.8459C54.1788 -0.6153 58.1519 -0.6153 60.6043 1.8459C63.0544 4.30949 63.0544 8.30296 60.6043 10.7642L46.9858 25.177H56.1641C59.6319 25.177 62.4419 28.0021 62.4419 31.4832Z" fill="#1A00F3"/>
<path d="M31.8633 37.7894C31.6535 37.811 31.439 37.8229 31.2222 37.8229C31.0053 37.8229 30.7908 37.811 30.5786 37.7894H31.8633Z" fill="#F7EEC6"/>
<path d="M77.8194 15.2891H83.1415L83.008 18.7989H83.0342C83.6515 16.5843 85.0244 15.0736 87.5221 15.0736C90.0199 15.0736 91.6072 16.3162 91.9314 18.6385H91.9576C92.4962 16.5317 93.9477 15.0736 96.4478 15.0736C99.4318 15.0736 100.936 16.8836 100.936 20.1229V28.6294H95.6137V21.4732C95.6137 20.2306 95.0488 19.5291 94.0287 19.5291C92.8466 19.5291 92.0124 20.4461 92.0124 22.3638V28.627H86.6903V21.4708C86.6903 20.2282 86.1541 19.5268 85.1054 19.5268C83.9757 19.5268 83.1439 20.4724 83.1439 22.4165V28.627H77.8218V15.2891H77.8194Z" fill="#1A00F3"/>
<path d="M103.441 15.2892H108.763L108.601 19.0145H108.655C109.194 16.6395 110.457 15.0713 113.01 15.0713C115.806 15.0713 117.15 16.7999 117.15 20.3911C117.15 21.3631 117.069 22.7135 117.016 23.47H112.447C112.502 22.8499 112.502 22.1197 112.502 21.7151C112.502 20.1756 111.937 19.5556 110.943 19.5556C109.625 19.5556 108.767 20.6617 108.767 23.0391V28.6294H103.445V15.2916L103.441 15.2892Z" fill="#1A00F3"/>
<path d="M129.036 20.1756C129.036 18.9618 128.283 18.3393 126.993 18.3393C125.704 18.3393 124.951 18.9331 124.71 20.5276H129.038V20.1756H129.036ZM133.578 22.7135H124.629C124.762 24.6312 125.542 25.359 126.993 25.359C128.204 25.359 128.955 24.873 129.036 23.7382H133.578C133.524 26.8985 131.185 28.8401 126.75 28.8401C121.616 28.8401 119.278 26.0868 119.278 22.091C119.278 17.5014 122.155 15.0713 126.805 15.0713C131.026 15.0713 133.578 17.1782 133.578 21.4709V22.7135Z" fill="#1A00F3"/>
<path d="M136.326 10.0244H140.814L141.727 12.2102H141.782L142.695 10.0244H147.185L144.47 14.1016H139.041L136.326 10.0244ZM135.466 25.4428L141.165 19.3664V19.3113H135.681V15.2891H147.776V18.4207L142.025 24.5761V24.6024H147.776V28.6246H135.466V25.438V25.4428Z" fill="#1A00F3"/>
<path d="M158.966 23.8219V23.47H156.225C155.339 23.47 154.826 23.9033 154.826 24.5498C154.826 25.359 155.472 25.8187 156.547 25.8187C158.053 25.8187 158.966 25.0908 158.966 23.8195V23.8219ZM149.988 24.9568C149.988 22.8499 151.413 21.3104 154.719 21.3104H158.966V20.3384C158.966 19.0958 158.32 18.5572 156.923 18.5572C155.741 18.5572 155.095 19.0982 155.095 20.0152C155.095 20.0703 155.095 20.2857 155.122 20.5563H150.472C150.417 20.2857 150.391 19.9625 150.391 19.6657C150.391 16.831 152.621 15.076 157.19 15.076C162.002 15.076 164.286 17.2356 164.286 20.7742V28.6318H158.964C159.045 28.0644 159.126 26.9295 159.126 26.094H159.099C158.697 27.7675 157.379 28.8473 154.907 28.8473C151.628 28.8473 149.988 27.2552 149.988 24.9592V24.9568Z" fill="#1A00F3"/>
<path d="M78.3295 45.6567H80.3196C80.3196 47.4379 81.3945 48.4914 84.164 48.4914C86.9334 48.4914 88.2228 47.6534 88.2228 46.2241C88.2228 45.683 88.0608 45.1707 87.3887 44.8474C86.7714 44.5506 85.3723 44.3878 83.7326 44.2274C81.5566 44.0382 80.2385 43.7677 79.433 43.1739C78.706 42.6328 78.3319 41.6608 78.3319 40.6888C78.3319 38.1773 80.6175 36.5565 84.164 36.5565C88.1418 36.5565 89.8078 38.3114 89.8078 41.3089H87.8177C87.7914 39.3097 86.6069 38.3928 84.2426 38.3928C81.8783 38.3928 80.4793 39.2307 80.4793 40.5523C80.4793 41.0934 80.5603 41.7398 81.3397 42.0654C81.9856 42.336 83.3012 42.4964 85.0482 42.6879C87.117 42.9034 88.1394 43.0925 89.0523 43.6049C89.9389 44.1172 90.3703 45.1443 90.3703 46.1427C90.3703 48.7619 88.2205 50.3277 84.1878 50.3277C79.7261 50.3277 78.3271 48.2208 78.3271 45.6567H78.3295Z" fill="#1A00F3"/>
<path d="M104.346 43.4684C104.346 40.4446 102.573 38.5005 99.7774 38.5005C96.9817 38.5005 95.2085 40.4446 95.2085 43.4684C95.2085 46.4922 96.9817 48.3836 99.7774 48.3836C102.573 48.3836 104.346 46.4659 104.346 43.4684ZM93.0587 43.4684C93.0587 39.2571 95.6661 36.5565 99.7774 36.5565C103.889 36.5565 106.496 39.2571 106.496 43.4684C106.496 47.6797 103.889 50.3277 99.7774 50.3277C95.6661 50.3277 93.0587 47.6534 93.0587 43.4684Z" fill="#1A00F3"/>
<path d="M109.857 31.3994H112.006V50.1098H109.857V31.3994ZM116.039 36.7719H118.189V50.1098H116.039V36.7719ZM115.958 32.3451H118.27V35.0721H115.958V32.3451Z" fill="#1A00F3"/>
<path d="M133.025 43.6049V42.9297C133.025 40.2291 131.171 38.5005 128.242 38.5005C125.473 38.5005 123.699 40.5786 123.699 43.3607C123.699 46.3318 125.473 48.3836 128.216 48.3836C131.145 48.3836 133.028 46.5209 133.028 43.6049H133.025ZM121.547 43.3607C121.547 39.3911 124.021 36.5564 128.051 36.5564C130.821 36.5564 132.513 37.6913 132.997 39.4462H133.023V31.3994H135.173V50.1098H133.023C133.104 48.9223 133.13 47.7348 133.157 46.5449H133.104C132.594 48.8409 130.821 50.3253 127.863 50.3253C124.019 50.3253 121.547 47.5169 121.547 43.3583V43.3607Z" fill="#1A00F3"/>
<path d="M148.803 44.5218V44.3327H143.589C141.413 44.3327 140.552 44.9815 140.552 46.2768C140.552 47.572 141.789 48.4914 143.884 48.4914C146.894 48.4914 148.803 46.9519 148.803 44.5218ZM138.533 46.2768C138.533 44.3878 139.851 42.7669 143.398 42.7669H148.801V41.7949C148.801 39.4989 147.457 38.3928 144.742 38.3928C142.297 38.3928 140.953 39.3097 140.953 41.1197C140.953 41.2011 140.953 41.3903 140.979 41.6057H138.991C138.965 41.4166 138.936 41.0383 138.936 40.7965C138.936 38.151 141.193 36.5565 144.797 36.5565C148.694 36.5565 150.953 38.5005 150.953 41.984V50.1122H148.803C148.83 49.4921 148.884 48.2495 148.911 46.9543H148.884C148.427 49.0061 146.761 50.3301 143.455 50.3301C140.445 50.3301 138.536 48.7906 138.536 46.2792L138.533 46.2768Z" fill="#1A00F3"/>
<path d="M154.581 36.7719H156.73L156.678 40.6337H156.704C157.321 38.3114 158.694 36.5565 161.542 36.5565C164.391 36.5565 166.111 38.5556 166.111 41.7686C166.111 42.6855 166.03 43.6575 165.978 44.1436H164.016C164.071 43.7389 164.124 43.0638 164.124 42.2258C164.124 39.7694 163.211 38.5005 161.032 38.5005C158.318 38.5005 156.733 40.8779 156.733 44.1986V50.1122H154.583V36.7743L154.581 36.7719Z" fill="#1A00F3"/>
<path d="M169.336 36.7719H171.486L171.431 40.3632H171.457C172.184 38.0408 174.038 36.5565 177.208 36.5565C180.702 36.5565 182.774 38.5819 182.774 41.7686V50.1122H180.624V42.2282C180.624 39.961 179.334 38.5029 176.484 38.5029C173.447 38.5029 171.483 40.3656 171.483 43.5522V50.1122H169.334V36.7743L169.336 36.7719Z" fill="#1A00F3"/>
<path d="M197.155 43.4684C197.155 40.4446 195.382 38.5005 192.586 38.5005C189.79 38.5005 188.017 40.4446 188.017 43.4684C188.017 46.4922 189.79 48.3836 192.586 48.3836C195.382 48.3836 197.155 46.4659 197.155 43.4684ZM185.865 43.4684C185.865 39.2571 188.472 36.5565 192.586 36.5565C196.7 36.5565 199.305 39.2571 199.305 43.4684C199.305 47.6797 196.697 50.3277 192.586 50.3277C188.475 50.3277 185.865 47.6534 185.865 43.4684Z" fill="#1A00F3"/>
<path d="M201.805 45.6567H203.795C203.795 47.4379 204.87 48.4914 207.639 48.4914C210.409 48.4914 211.698 47.6534 211.698 46.2241C211.698 45.683 211.536 45.1707 210.866 44.8474C210.249 44.5506 208.85 44.3878 207.21 44.2274C205.032 44.0382 203.716 43.7677 202.911 43.1739C202.184 42.6328 201.809 41.6608 201.809 40.6888C201.809 38.1773 204.095 36.5565 207.642 36.5565C211.619 36.5565 213.285 38.3114 213.285 41.3089H211.298C211.271 39.3097 210.087 38.3928 207.723 38.3928C205.358 38.3928 203.959 39.2307 203.959 40.5523C203.959 41.0934 204.04 41.7398 204.82 42.0654C205.466 42.336 206.781 42.4964 208.528 42.6879C210.597 42.9034 211.619 43.0925 212.532 43.6049C213.419 44.1172 213.85 45.1443 213.85 46.1427C213.85 48.7619 211.7 50.3277 207.668 50.3277C203.206 50.3277 201.807 48.2208 201.807 45.6567H201.805Z" fill="#1A00F3"/>
<path d="M217.742 45.2233V38.6609H215.538V36.7719H217.311C217.74 36.7719 217.902 36.5565 217.957 35.8526L218.064 33.7457H219.892V36.7696H224.704V38.6585H219.892V45.0845C219.892 47.1099 220.538 48.3238 222.526 48.3238C223.439 48.3238 224.299 48.161 224.595 48.0532V49.8896C224.192 50.0524 223.412 50.2152 222.337 50.2152C219.113 50.2152 217.742 48.1634 217.742 45.2209V45.2233Z" fill="#1A00F3"/>
<path d="M227.769 36.772H229.919V50.1098H227.769V36.772ZM227.688 32.3452H230V35.0721H227.688V32.3452Z" fill="#1A00F3"/>
</g>
<defs>
<clipPath id="clip0_13_110">
<rect width="230" height="63" fill="white"/>
</clipPath>
</defs>
</svg>

