<svg width="141" height="155" viewBox="0 0 141 155" fill="none" xmlns="http://www.w3.org/2000/svg">
<g clip-path="url(#clip0_26_469)">
<path d="M138.49 49.2793C137.945 45.1748 133.782 46.1213 133.782 46.1213C133.782 42.4273 130.616 41.799 128.564 42.955C125.062 44.9402 126.235 51.2981 126.235 51.2981C123.228 51.8425 122.214 55.1764 121.175 60.0516C118.57 72.2311 122.415 86.7561 121.703 91.8909C122.44 91.0365 123.211 90.1402 123.998 89.202L124.04 88.7246C124.04 88.7246 124.09 88.1717 124.174 87.2084C124.233 86.2032 124.3 84.7541 124.35 82.9866C124.434 79.4601 124.551 74.7608 124.668 70.0532C124.744 67.7078 124.878 65.3372 124.987 63.1342C125.045 62.0368 125.163 60.9646 125.246 59.9594C125.322 58.9542 125.431 57.9993 125.531 57.1282C125.958 53.6267 126.235 51.2897 126.235 51.2897C126.235 51.2897 126.084 53.6351 125.858 57.1533C125.799 58.0328 125.741 58.9878 125.724 59.9929C125.699 60.9981 125.649 62.062 125.64 63.1593C125.665 65.3623 125.632 67.6994 125.749 70.0532C125.975 74.7524 126.21 79.4517 126.377 82.9699C126.436 84.1761 126.469 85.2399 126.495 86.1362C126.562 86.0524 126.62 85.9771 126.687 85.8933C127.24 85.1897 127.81 84.4609 128.304 83.7238C128.43 83.5395 128.547 83.3552 128.647 83.1793C128.748 83.0034 128.79 82.9447 128.89 82.6683C128.924 82.4505 128.999 81.9479 129.024 81.5207C129.125 79.7114 129.083 77.768 129.024 75.8414C128.974 73.9064 128.915 71.9631 128.865 70.0616C128.832 68.1433 128.798 66.2586 128.765 64.4409C128.765 62.6148 128.765 60.8474 128.773 59.172C128.806 57.4883 128.899 55.8549 129.083 54.3806C129.326 52.898 129.56 51.5326 130.013 50.3766C130.44 49.2207 130.942 48.249 131.495 47.5454C132.04 46.8334 132.651 46.4313 133.087 46.2637C133.531 46.0878 133.782 46.1046 133.782 46.1046C133.782 46.1046 133.531 46.1465 133.162 46.4062C132.802 46.6574 132.35 47.1433 131.956 47.8553C131.169 49.2961 130.775 51.6666 130.7 54.5063C130.683 55.9303 130.716 57.4632 130.834 59.1218C130.926 60.7887 131.018 62.5478 131.11 64.3739C131.261 68.0177 131.395 71.9044 131.378 75.8246C131.336 77.7848 131.303 79.7365 131.043 81.7469C130.959 82.2746 130.892 82.7186 130.649 83.4138C130.574 83.5814 130.39 83.9415 130.239 84.1593C130.096 84.3855 129.954 84.5865 129.803 84.7876C129.217 85.575 128.605 86.287 128.002 86.9906C125.54 89.7381 123.144 92.1673 121.025 94.1861C119.911 95.2499 118.897 96.1965 117.992 97.0341C110.495 104.33 93.7589 117.113 92.8626 115.186C92.6951 114.826 92.6197 114.449 92.6197 114.072C92.6197 114.072 92.6197 114.08 92.6197 114.089C92.6448 114.348 92.6616 114.483 92.6616 114.483C92.6616 114.483 92.603 114.357 92.4857 114.106C92.4019 113.846 92.36 113.419 92.4689 112.899C92.5946 112.397 92.8124 111.794 93.1809 111.182C93.5244 110.554 93.9767 109.901 94.5128 109.222C96.6405 106.491 100.033 103.484 103.534 100.703C105.31 99.3377 107.078 97.9807 108.778 96.7661C110.47 95.5515 112.045 94.4206 113.402 93.4489C114.751 92.4689 115.856 91.6396 116.593 91.003C117.322 90.3831 117.708 89.9475 117.708 89.9475C122.256 80.9092 108.946 84.8127 106.851 86.1865C99.9827 90.7014 90.9779 95.3253 82.6097 101.851C63.3687 116.861 77.4832 155 77.4832 155C78.7146 144.739 125.163 123.948 138.708 97.5367C141.866 91.3799 139.277 54.9838 138.515 49.2709L138.49 49.2793Z" fill="#1A156F"/>
<path d="M14.9689 59.9762C15.0527 60.9814 15.1616 62.0452 15.2286 63.1509C15.3291 65.354 15.4715 67.7162 15.5469 70.07C15.6642 74.7776 15.7731 79.4769 15.8652 83.0034C15.9155 84.7709 15.9825 86.22 16.0411 87.2252C16.1249 88.1885 16.1751 88.7414 16.1751 88.7414L16.217 89.2104C17.0044 90.1486 17.7751 91.0533 18.5122 91.8993C17.8002 86.7729 21.645 72.2311 19.0399 60.0516C17.9928 55.1681 16.9877 51.8426 13.9805 51.2981C13.9805 51.2981 14.2569 53.6352 14.6841 57.1366C14.7846 58.0077 14.9019 58.9627 14.9773 59.9762H14.9689Z" fill="#1A156F"/>
<path d="M57.6224 101.851C49.2542 95.3253 40.2494 90.7015 33.3806 86.1865C31.2865 84.8127 17.9761 80.9092 22.5246 89.9476C27.517 99.8654 50.2259 109.029 47.3528 115.186C46.4565 117.113 29.762 104.364 22.2482 97.0593C21.3351 96.2216 20.3048 95.2583 19.1824 94.1861C17.0547 92.1674 14.6674 89.7381 12.2047 86.9906C11.6016 86.287 10.9901 85.575 10.4037 84.7876C10.2529 84.5866 10.1105 84.3855 9.96814 84.1677C9.81736 83.9499 9.63308 83.5897 9.55769 83.4222C9.31477 82.7353 9.24775 82.2914 9.16399 81.7553C8.89594 79.7533 8.87081 77.8015 8.82055 75.833C8.79542 71.9128 8.93782 68.0261 9.0886 64.3823C9.18074 62.5562 9.28126 60.8055 9.36503 59.1302C9.4823 57.4716 9.52418 55.9387 9.49905 54.5147C9.43204 51.675 9.03834 49.3128 8.24257 47.8637C7.85724 47.1433 7.40491 46.6658 7.03634 46.4145C6.66777 46.1549 6.41647 46.113 6.41647 46.113C6.41647 46.113 2.25332 45.1748 1.70884 49.2709C0.946575 54.9838 -1.64178 91.38 1.51618 97.5367C15.0611 123.94 61.5092 144.739 62.7321 155C62.7321 155 76.8466 116.861 57.6057 101.851H57.6224Z" fill="#1A156F"/>
<path d="M7.12844 46.2721C7.57239 46.4397 8.18388 46.8418 8.71998 47.5538C9.27284 48.2574 9.77543 49.2207 10.2026 50.385C10.6466 51.541 10.8811 52.9064 11.1241 54.389C11.3083 55.8717 11.3921 57.5051 11.434 59.1804C11.434 60.8558 11.434 62.6232 11.4424 64.4409C11.4089 66.267 11.3754 68.1517 11.3418 70.0616C11.2916 71.9715 11.233 73.9064 11.1827 75.8498C11.1241 77.7764 11.0738 79.7198 11.1827 81.5291C11.1994 81.9563 11.2832 82.4589 11.3083 82.6767C11.4172 82.9448 11.4591 83.0034 11.5513 83.1877C11.6518 83.3636 11.7774 83.5479 11.9031 83.7322C12.3973 84.4693 12.9669 85.1981 13.5198 85.9017C13.5868 85.9855 13.6538 86.0608 13.7124 86.1446C13.7375 85.2483 13.7711 84.1845 13.8213 82.9783C13.9888 79.4601 14.2234 74.7525 14.4496 70.0616C14.5752 67.7078 14.5333 65.3791 14.5585 63.1677C14.5585 62.0704 14.4998 61.0065 14.4831 60.0013C14.4663 58.9961 14.3993 58.0412 14.349 57.1617C14.1229 53.6435 13.9721 51.2981 13.9721 51.2981C13.9721 51.2981 15.1448 44.9319 11.6434 42.955C9.59115 41.7907 6.4248 42.4273 6.4248 46.1214C6.4248 46.1214 6.6761 46.1046 7.12006 46.2805L7.12844 46.2721Z" fill="#1A156F"/>
<path d="M69.4753 19.375C69.5255 18.973 69.3329 18.5709 68.9727 18.3699C63.7038 15.0611 51.5662 9.87602 28.5976 9.58284C28.0364 9.54933 27.4835 9.76712 27.0898 10.1692C26.6794 10.5629 26.4448 11.1074 26.4616 11.677V77.6173C26.4365 78.7482 27.3411 79.6863 28.472 79.7115C28.4887 79.7115 28.4971 79.7115 28.5139 79.7115C50.0668 80.0046 61.9866 84.5196 67.8 87.7865C68.1183 87.9959 68.5287 87.9959 68.847 87.7865C69.1486 87.5938 69.3329 87.2671 69.3496 86.9069C69.3496 86.9069 69.3077 20.6315 69.4753 19.375Z" fill="#1A156F"/>
<path d="M102.831 66.7445C102.814 68.2607 101.733 69.5591 100.234 69.8439C93.4322 71.1255 87.1749 74.4091 82.2411 79.2591C80.6412 81.102 79.2339 83.104 78.0528 85.24C77.7848 85.6169 77.7848 86.1195 78.0528 86.4965C78.4214 86.7394 78.8989 86.7394 79.2674 86.4965C91.003 81.504 103.677 79.1251 116.426 79.5104C117.557 79.5104 118.478 78.589 118.478 77.4582C118.478 77.4414 118.478 77.433 118.478 77.4163V11.677C118.495 11.1074 118.26 10.5629 117.85 10.1692C117.456 9.76712 116.903 9.55771 116.342 9.58284C111.702 9.58284 107.513 9.9179 103.786 10.2948C103.266 10.3786 102.881 10.8142 102.864 11.3419L102.822 66.7445H102.831Z" fill="#1A156F"/>
<path d="M95.7944 64.441C96.2384 64.307 96.5483 63.9049 96.5483 63.4358V0.963362C96.5483 0.628299 96.3724 0.30999 96.0876 0.125705C95.7861 -0.0502026 95.4259 -0.0502026 95.1243 0.125705C90.2408 1.76751 85.8263 4.54853 82.2328 8.2426C78.7565 11.6267 76.4446 16.0161 75.6237 20.7991V74.5264C75.6237 74.9536 75.8833 75.3473 76.2938 75.4897C76.6959 75.6488 77.1566 75.5483 77.4665 75.2384C82.4589 70.0114 88.8 66.2755 95.7944 64.441Z" fill="#1A156F"/>
</g>
<defs>
<clipPath id="clip0_26_469">
<rect width="140.215" height="155" fill="white"/>
</clipPath>
</defs>
</svg>

