<svg width="166" height="155" viewBox="0 0 166 155" fill="none" xmlns="http://www.w3.org/2000/svg">
<g clip-path="url(#clip0_37_330)">
<path d="M163.966 30.7334C163.33 25.91 158.421 27.0207 158.421 27.0207C158.421 22.6891 154.686 21.9434 152.271 23.3079C148.156 25.6403 149.522 33.1134 149.522 33.1134C145.979 33.7639 144.787 37.6671 143.563 43.4108C140.497 57.7224 145.025 74.8106 144.183 80.8399C145.041 79.8403 145.963 78.7772 146.884 77.6824L146.932 77.1271C146.932 77.1271 146.996 76.4766 147.091 75.3501C147.155 74.1601 147.234 72.4624 147.298 70.3839C147.393 66.2427 147.536 60.7053 147.663 55.1837C147.742 52.423 147.917 49.6463 148.044 47.0601C148.124 45.759 148.251 44.5056 148.346 43.3314C148.442 42.1415 148.569 41.0308 148.68 39.9995C149.173 35.8742 149.506 33.1293 149.506 33.1293C149.506 33.1293 149.331 35.89 149.061 40.0153C148.998 41.0467 148.918 42.1732 148.902 43.3473C148.871 44.5373 148.807 45.7749 148.807 47.0759C148.839 49.6622 148.807 52.4071 148.934 55.1837C149.204 60.7053 149.474 66.2268 149.681 70.368C149.745 71.7801 149.792 73.0336 149.808 74.0807C149.888 73.9855 149.967 73.8903 150.031 73.7951C150.682 72.9701 151.349 72.1133 151.937 71.2406C152.08 71.0185 152.223 70.8122 152.351 70.5901C152.462 70.3839 152.509 70.3045 152.637 69.9872C152.668 69.7333 152.764 69.1304 152.795 68.6385C152.923 66.5124 152.859 64.2276 152.795 61.9587C152.732 59.674 152.668 57.405 152.605 55.1679C152.557 52.9148 152.525 50.6935 152.478 48.5515C152.478 46.4095 152.478 44.331 152.478 42.3636C152.525 40.3803 152.621 38.4763 152.843 36.731C153.129 34.9857 153.399 33.3831 153.94 32.0186C154.432 30.6541 155.036 29.5276 155.687 28.6866C156.323 27.8457 157.038 27.3697 157.562 27.1793C158.087 26.9731 158.389 26.9889 158.389 26.9889C158.389 26.9889 158.087 27.0365 157.658 27.338C157.229 27.6395 156.704 28.1948 156.244 29.0516C155.306 30.7493 154.861 33.5259 154.766 36.8738C154.75 38.5556 154.782 40.3485 154.925 42.3001C155.036 44.2676 155.131 46.3302 155.258 48.4722C155.433 52.7561 155.592 57.3257 155.576 61.927C155.529 64.2276 155.497 66.5283 155.179 68.8765C155.084 69.4953 155.004 70.0189 154.718 70.8281C154.639 71.0344 154.416 71.4469 154.241 71.7008C154.083 71.9705 153.908 72.2085 153.733 72.4465C153.05 73.3826 152.319 74.2077 151.604 75.0327C148.712 78.2536 145.883 81.1096 143.389 83.4896C142.086 84.743 140.878 85.8537 139.813 86.8374C130.994 95.4212 111.291 110.447 110.226 108.178C110.036 107.749 109.94 107.321 109.94 106.861C109.94 106.861 109.94 106.861 109.94 106.877C109.972 107.178 109.988 107.337 109.988 107.337C109.988 107.337 109.924 107.178 109.781 106.893C109.686 106.591 109.638 106.084 109.765 105.481C109.924 104.894 110.179 104.18 110.608 103.466C111.005 102.72 111.545 101.958 112.181 101.165C114.691 97.9598 118.68 94.4216 122.795 91.1531C124.877 89.5506 126.974 87.9481 128.961 86.5201C130.947 85.0921 132.806 83.7593 134.395 82.6169C135.984 81.4587 137.287 80.4908 138.145 79.7451C139.003 79.0152 139.448 78.5075 139.448 78.5075C144.803 67.8769 129.135 72.4624 126.672 74.0807C118.584 79.396 107.986 84.8224 98.134 92.5018C75.4749 110.145 92.0958 154.984 92.0958 154.984C93.5418 142.926 148.219 118.475 164.173 87.4404C167.891 80.2052 164.84 37.4132 163.95 30.7017L163.966 30.7334Z" fill="#4AA91C"/>
<path d="M18.557 43.2997C18.6523 44.4897 18.7794 45.7431 18.8589 47.0283C18.986 49.6146 19.1449 52.3912 19.2244 55.152C19.3515 60.6894 19.4945 66.2109 19.5898 70.3521C19.6534 72.4306 19.7328 74.1283 19.7964 75.3183C19.8917 76.4449 19.9553 77.0954 19.9553 77.0954L20.003 77.6507C20.9246 78.7455 21.8462 79.8086 22.7043 80.8081C21.8621 74.7789 26.3907 57.6906 23.324 43.379C22.1004 37.6512 20.9087 33.7322 17.3652 33.0817C17.3652 33.0817 17.6989 35.8266 18.1915 39.9519C18.3186 40.9832 18.4458 42.0938 18.5411 43.2838L18.557 43.2997Z" fill="#4AA91C"/>
<path d="M68.7693 92.5335C58.9175 84.87 48.3189 79.4278 40.2309 74.1125C37.7679 72.4941 22.1004 67.9087 27.4554 78.5393C33.3346 90.2012 60.0616 100.975 56.677 108.21C55.6283 110.479 35.9724 95.4847 27.1217 86.9009C26.0412 85.9172 24.8335 84.7907 23.5147 83.5214C21.0199 81.1414 18.1915 78.2854 15.2995 75.0645C14.5845 74.2395 13.8694 73.3985 13.1703 72.4783C12.9955 72.2403 12.8207 72.0023 12.6618 71.7484C12.487 71.4945 12.2646 71.0661 12.1851 70.8758C11.8991 70.0666 11.8196 69.543 11.7243 68.9242C11.4065 66.5601 11.3747 64.2753 11.327 61.9588C11.2953 57.3575 11.4701 52.7879 11.6448 48.504C11.7561 46.362 11.8673 44.2993 11.9626 42.3319C12.1057 40.3803 12.1533 38.5874 12.1215 36.9055C12.0421 33.5736 11.5813 30.7811 10.6438 29.0833C10.183 28.2424 9.6586 27.6712 9.22957 27.3698C8.80054 27.0683 8.49863 27.0207 8.49863 27.0207C8.49863 27.0207 3.60452 25.91 2.95304 30.7335C2.0632 37.445 -0.987676 80.237 2.73058 87.4721C18.6682 118.507 73.3456 142.957 74.7916 155.016C74.7916 155.016 91.4125 110.177 68.7534 92.5335H68.7693Z" fill="#4AA91C"/>
<path d="M9.32491 27.1952C9.84928 27.4015 10.5643 27.8616 11.1999 28.7025C11.8514 29.5276 12.4393 30.67 12.9478 32.0345C13.4722 33.399 13.7423 35.0015 14.0442 36.7468C14.2667 38.4922 14.362 40.412 14.4097 42.3795C14.4097 44.3469 14.4097 46.4254 14.4097 48.5674C14.362 50.7094 14.3303 52.9307 14.2826 55.1837C14.219 57.4209 14.1555 59.7057 14.0919 61.9905C14.0125 64.2594 13.9648 66.5442 14.0919 68.6703C14.1078 69.1621 14.2031 69.7651 14.2508 70.0189C14.3779 70.3363 14.4256 70.3997 14.5368 70.6219C14.6639 70.8281 14.807 71.0502 14.95 71.2724C15.5379 72.145 16.2053 73.0018 16.8568 73.8269C16.9362 73.9221 17.0157 74.0173 17.0951 74.1125C17.1269 73.0653 17.1587 71.8118 17.2222 70.3839C17.4288 66.2427 17.6989 60.7211 17.9691 55.1996C18.1121 52.4388 18.0644 49.6939 18.0962 47.1077C18.0962 45.8066 18.0326 44.569 18.0008 43.379C17.9849 42.1891 17.9055 41.0784 17.8419 40.0471C17.5718 35.9059 17.397 33.161 17.397 33.161C17.397 33.161 18.7794 25.6879 14.6639 23.3555C12.2487 21.991 8.51453 22.7367 8.51453 27.0683C8.51453 27.0683 8.81644 27.0524 9.3408 27.2587L9.32491 27.1952Z" fill="#4AA91C"/>
<path d="M126.879 26.1639C126.879 26.9096 126.815 27.6395 126.672 28.3693C126.529 29.0992 126.307 29.7973 126.037 30.4955C125.751 31.1777 125.401 31.8283 124.988 32.447C124.575 33.0658 124.114 33.637 123.59 34.1606C123.065 34.6842 122.493 35.1602 121.874 35.5727C121.254 35.9853 120.602 36.3343 119.919 36.6199C119.236 36.9055 118.521 37.1277 117.79 37.2705C117.059 37.4133 116.328 37.4926 115.581 37.4926C114.834 37.4926 114.103 37.4291 113.372 37.2863C112.642 37.1435 111.942 36.9373 111.243 36.6517C110.56 36.3661 109.908 36.017 109.289 35.6045C108.669 35.192 108.097 34.7318 107.573 34.1924C107.048 33.6688 106.572 33.0976 106.158 32.4788C105.745 31.86 105.396 31.2095 105.11 30.5272C104.824 29.8449 104.617 29.1309 104.458 28.4011C104.315 27.6712 104.236 26.9414 104.236 26.1956C104.236 25.4499 104.299 24.72 104.458 23.9902C104.601 23.2603 104.808 22.5622 105.094 21.8641C105.38 21.1818 105.729 20.5313 106.143 19.9125C106.556 19.2937 107.032 18.7225 107.557 18.1989C108.081 17.6753 108.653 17.1993 109.273 16.7868C109.893 16.3743 110.544 16.0252 111.227 15.7396C111.911 15.454 112.626 15.2477 113.357 15.0891C114.087 14.9463 114.818 14.8669 115.565 14.8669C116.312 14.8669 117.043 14.9463 117.774 15.0891C118.505 15.2319 119.204 15.4381 119.903 15.7237C120.586 16.0093 121.238 16.3584 121.858 16.7709C122.477 17.1835 123.049 17.6436 123.574 18.1672C124.098 18.6908 124.575 19.262 124.988 19.8808C125.401 20.4996 125.751 21.1501 126.037 21.8323C126.323 22.5146 126.529 23.2127 126.688 23.9426C126.831 24.6725 126.911 25.4023 126.911 26.148L126.879 26.1639Z" fill="#4AA91C"/>
<path d="M40.0084 26.1639C40.0084 26.9096 40.072 27.6395 40.215 28.3693C40.358 29.0992 40.5646 29.7973 40.8506 30.4955C41.1366 31.1936 41.4862 31.8283 41.8994 32.447C42.3125 33.0658 42.7733 33.637 43.3136 34.1606C43.8538 34.6842 44.41 35.1602 45.0297 35.5727C45.6494 35.9853 46.3009 36.3343 46.9841 36.6199C47.6674 36.9055 48.3825 37.1277 49.1134 37.2705C49.8443 37.4133 50.5753 37.4926 51.3221 37.4926C52.0689 37.4926 52.7999 37.4291 53.5308 37.2863C54.2617 37.1435 54.9609 36.9373 55.6601 36.6517C56.3592 36.3661 56.9948 36.017 57.6145 35.6045C58.2342 35.192 58.8063 34.7318 59.3306 34.1924C59.855 33.6688 60.3317 33.0976 60.7448 32.4788C61.158 31.86 61.5076 31.2095 61.7936 30.5272C62.0796 29.8449 62.2862 29.1309 62.4451 28.4011C62.604 27.6712 62.6675 26.9414 62.6675 26.1956C62.6675 25.4499 62.5881 24.72 62.4451 23.9902C62.3021 23.2603 62.0796 22.5622 61.7936 21.8641C61.5076 21.1818 61.158 20.5313 60.7448 19.9125C60.3317 19.2937 59.8709 18.7225 59.3306 18.1989C58.7904 17.6753 58.2342 17.1993 57.6145 16.7868C56.9948 16.3743 56.3433 16.0252 55.6601 15.7396C54.9768 15.454 54.2617 15.2477 53.5308 15.0891C52.7999 14.9463 52.0689 14.8669 51.3221 14.8669C50.5753 14.8669 49.8443 14.9463 49.1134 15.0891C48.3825 15.2319 47.6833 15.4381 47 15.7237C46.3168 16.0093 45.6653 16.3584 45.0456 16.7709C44.4259 17.1835 43.8538 17.6436 43.3294 18.1672C42.8051 18.6908 42.3443 19.262 41.9152 19.8808C41.5021 20.4996 41.1525 21.1501 40.8665 21.8323C40.5805 22.5146 40.3739 23.2127 40.215 23.9426C40.0561 24.6725 39.9926 25.4023 39.9926 26.148L40.0084 26.1639Z" fill="#4AA91C"/>
<path d="M59.3942 11.2811C59.3942 12.0268 59.4577 12.7567 59.6008 13.4865C59.7438 14.2164 59.9503 14.9145 60.2364 15.6126C60.5224 16.2949 60.872 16.9454 61.2851 17.5642C61.6982 18.183 62.159 18.7542 62.6834 19.2778C63.2078 19.8014 63.7798 20.2774 64.3995 20.6899C65.0192 21.1025 65.6707 21.4515 66.354 21.7371C67.0373 22.0227 67.7523 22.229 68.4832 22.3877C69.2142 22.5463 69.9451 22.6098 70.692 22.6098C71.4388 22.6098 72.1697 22.5463 72.9007 22.4035C73.6316 22.2607 74.3308 22.0386 75.0299 21.753C75.7132 21.4674 76.3647 21.1183 76.9844 20.7058C77.6041 20.2933 78.1761 19.8331 78.7005 19.3095C79.2249 18.786 79.7016 18.2148 80.1147 17.596C80.5278 16.9772 80.8774 16.3266 81.1634 15.6444C81.4495 14.9621 81.656 14.2481 81.8149 13.5183C81.9579 12.7884 82.0374 12.0585 82.0374 11.3128C82.0374 10.5671 81.9738 9.83724 81.8149 9.10738C81.6719 8.37752 81.4653 7.67939 81.1793 6.98126C80.8933 6.299 80.5437 5.64848 80.1306 5.02968C79.7175 4.41089 79.2566 3.83969 78.7323 3.3161C78.2079 2.7925 77.6359 2.31651 77.0162 1.90398C76.3965 1.49145 75.745 1.14239 75.0617 0.856789C74.3784 0.571192 73.6634 0.364927 72.9324 0.206262C72.2015 0.0634634 71.4706 -0.0158691 70.7237 -0.0158691C69.9769 -0.0158691 69.246 0.0634634 68.515 0.206262C67.7841 0.349061 67.0849 0.571192 66.3858 0.856789C65.6866 1.14239 65.051 1.49145 64.4313 1.90398C63.8116 2.31651 63.2396 2.77664 62.7152 3.30023C62.1908 3.82383 61.7141 4.39502 61.301 5.01382C60.8878 5.63261 60.5383 6.28314 60.2522 6.9654C59.9662 7.64766 59.7597 8.36165 59.6008 9.09151C59.4577 9.82137 59.3783 10.5512 59.3783 11.297L59.3942 11.2811Z" fill="#4AA91C"/>
<path d="M107.509 11.2811C107.509 12.0268 107.445 12.7567 107.302 13.4865C107.159 14.2164 106.953 14.9145 106.667 15.6126C106.381 16.2949 106.031 16.9454 105.618 17.5642C105.205 18.183 104.744 18.7542 104.22 19.2778C103.695 19.8014 103.123 20.2774 102.504 20.6899C101.884 21.1025 101.233 21.4515 100.549 21.7371C99.866 22.0227 99.1509 22.229 98.42 22.3877C97.689 22.5463 96.9581 22.6098 96.2113 22.6098C95.4644 22.6098 94.7335 22.5463 94.0026 22.4035C93.2716 22.2607 92.5725 22.0386 91.8733 21.753C91.1742 21.4674 90.5386 21.1183 89.9189 20.7058C89.2991 20.2933 88.7271 19.8331 88.2027 19.3095C87.6784 18.786 87.2017 18.2148 86.7885 17.596C86.3754 16.9772 86.0258 16.3266 85.7398 15.6444C85.4538 14.9621 85.2472 14.2481 85.0883 13.5183C84.9294 12.7884 84.8658 12.0585 84.8658 11.3128C84.8658 10.5671 84.9453 9.83724 85.0883 9.10738C85.2313 8.37752 85.4538 7.67939 85.7398 6.98126C86.0258 6.299 86.3754 5.64848 86.7885 5.02968C87.2017 4.41089 87.6625 3.83969 88.2027 3.3161C88.7271 2.7925 89.2991 2.31651 89.9189 1.90398C90.5386 1.49145 91.19 1.14239 91.8733 0.856789C92.5566 0.571192 93.2716 0.364927 94.0026 0.206262C94.7335 0.0634634 95.4644 -0.0158691 96.2113 -0.0158691C96.9581 -0.0158691 97.689 0.0634634 98.42 0.206262C99.1509 0.349061 99.8501 0.571192 100.533 0.856789C101.217 1.14239 101.868 1.49145 102.488 1.90398C103.108 2.31651 103.68 2.77664 104.204 3.30023C104.728 3.82383 105.205 4.39502 105.618 5.01382C106.031 5.63261 106.381 6.28314 106.667 6.9654C106.953 7.64766 107.159 8.36165 107.318 9.09151C107.461 9.82137 107.541 10.5512 107.541 11.297L107.509 11.2811Z" fill="#4AA91C"/>
<path d="M94.7653 35.7949C94.7653 36.5406 94.6859 37.2705 94.5429 38.0003C94.3999 38.7302 94.1774 39.4283 93.8914 40.1264C93.6054 40.8087 93.2558 41.4592 92.8426 42.078C92.4295 42.6968 91.9687 43.268 91.4284 43.7916C90.9041 44.3152 90.332 44.7912 89.7123 45.2037C89.0926 45.6163 88.4411 45.9653 87.7579 46.2509C87.0746 46.5365 86.3595 46.7428 85.6286 46.9014C84.8977 47.0442 84.1667 47.1236 83.4199 47.1236C82.6731 47.1236 81.9421 47.0442 81.2112 46.9014C80.4803 46.7586 79.7811 46.5365 79.0819 46.2509C78.3987 45.9653 77.7472 45.6163 77.1275 45.2037C76.5078 44.7912 75.9357 44.3311 75.4114 43.7916C74.887 43.2521 74.4103 42.6968 73.9971 42.078C73.584 41.4592 73.2344 40.8087 72.9484 40.1264C72.6624 39.4442 72.4558 38.7302 72.2969 38.0003C72.138 37.2705 72.0745 36.5406 72.0745 35.7949C72.0745 35.0492 72.138 34.3193 72.2969 33.5894C72.4558 32.8596 72.6624 32.1614 72.9484 31.4633C73.2344 30.7652 73.584 30.1305 73.9971 29.5117C74.4103 28.8929 74.887 28.3218 75.4114 27.7982C75.9357 27.2746 76.5078 26.7986 77.1275 26.386C77.7472 25.9735 78.3987 25.6244 79.0819 25.3388C79.7652 25.0532 80.4803 24.847 81.2112 24.6883C81.9421 24.5455 82.6731 24.4662 83.4199 24.4662C84.1667 24.4662 84.8977 24.5297 85.6286 24.6883C86.3595 24.8311 87.0587 25.0374 87.7579 25.323C88.457 25.6086 89.0926 25.9576 89.7123 26.3702C90.332 26.7827 90.9041 27.2428 91.4284 27.7823C91.9528 28.3059 92.4295 28.8771 92.8426 29.4959C93.2558 30.1147 93.6054 30.7652 93.8914 31.4475C94.1774 32.1297 94.384 32.8437 94.5429 33.5736C94.6859 34.3034 94.7494 35.0333 94.7494 35.779L94.7653 35.7949Z" fill="#4AA91C"/>
<path d="M59.0287 63.8785C59.0287 55.0726 63.1124 48.012 69.8816 44.7277C69.4207 43.8233 68.8646 42.9982 68.2131 42.2049C67.5616 41.4274 66.8625 40.7134 66.068 40.0788C65.2735 39.4441 64.4313 38.9046 63.5256 38.4445C62.6198 37.9844 61.6823 37.6195 60.6972 37.3656H60.3952C60.1569 37.3656 59.9344 37.4291 59.7438 37.556C59.2671 37.8733 58.8221 38.2065 58.3772 38.5556C57.0742 39.571 55.0721 43.1093 49.9714 43.1093C44.8708 43.1093 44.6006 39.809 43.822 38.5239C43.5837 38.1113 43.25 37.7781 42.8527 37.5243C42.662 37.3973 42.4555 37.3339 42.2171 37.3339H41.8993C34.3516 39.4917 30.5062 46.4412 30.5062 54.2793V63.6405C30.5062 63.7992 30.538 63.942 30.6016 64.0848C30.6651 64.2276 30.7446 64.3545 30.8558 64.4656C30.967 64.5767 31.0942 64.656 31.2372 64.7195C31.3802 64.7829 31.5232 64.8147 31.6821 64.8147H59.0287V63.8944V63.8785Z" fill="#4AA91C"/>
<path d="M124.956 37.3656H124.638C124.4 37.3656 124.193 37.4291 124.003 37.556C123.606 37.8099 123.288 38.1431 123.065 38.5556C122.303 39.8408 122.001 43.1093 116.9 43.1093C111.799 43.1093 109.845 39.5869 108.494 38.5556C108.065 38.2065 107.604 37.8575 107.144 37.556C106.937 37.4291 106.73 37.3656 106.492 37.3656H106.19C105.205 37.6353 104.267 37.9844 103.362 38.4445C102.456 38.9046 101.614 39.4441 100.819 40.0788C100.025 40.7134 99.3098 41.4274 98.6742 42.2049C98.0386 42.9823 97.4824 43.8233 97.0057 44.7277C103.775 48.012 107.859 55.0568 107.859 63.8785V64.7988H135.221C135.38 64.7988 135.523 64.7671 135.666 64.7036C135.809 64.6401 135.936 64.5608 136.047 64.4497C136.159 64.3387 136.238 64.2117 136.302 64.0689C136.365 63.9261 136.397 63.7833 136.397 63.6247V54.2634C136.397 46.4254 132.552 39.46 124.956 37.3497V37.3656Z" fill="#4AA91C"/>
<path d="M63.8116 74.3981C63.6527 74.3981 63.5097 74.3663 63.3667 74.3187C63.2237 74.2711 63.0965 74.1759 62.9853 74.0649C62.8741 73.9538 62.7787 73.8269 62.7311 73.6841C62.6675 73.5413 62.6357 73.3826 62.6357 73.2398V63.8785C62.6357 56.0405 66.497 49.091 74.0765 46.9807H74.3943C74.6327 46.9807 74.8551 47.0442 75.0458 47.1711C75.5225 47.4884 75.9674 47.8216 76.3965 48.1707C77.6994 49.2179 79.6857 52.7403 84.7864 52.7403C89.887 52.7403 90.2048 49.4559 90.9675 48.1866C91.1741 47.7582 91.476 47.425 91.8892 47.1711C92.0957 47.0442 92.3023 46.9807 92.5407 46.9807H92.8584C100.438 49.091 104.299 56.0405 104.299 63.8785V73.2398C104.299 73.3985 104.267 73.5413 104.204 73.6841C104.14 73.8269 104.061 73.9538 103.95 74.0649C103.838 74.1759 103.711 74.2553 103.568 74.3187C103.425 74.3822 103.266 74.4139 103.123 74.3981H63.8434H63.8116Z" fill="#4AA91C"/>
<path d="M31.2213 64.7037C31.2213 64.7037 33.5889 65.1797 54.5637 75.4771C75.5384 85.7744 83.261 94.152 83.261 94.152C83.261 94.152 98.3882 81.9347 107.493 78.095C116.598 74.2553 136.032 64.4498 136.032 64.4498L31.2054 64.7037H31.2213Z" fill="#4AA91C"/>
</g>
<defs>
<clipPath id="clip0_37_330">
<rect width="165.065" height="155" fill="white" transform="translate(0.935059)"/>
</clipPath>
</defs>
</svg>
