<svg width="200" height="61" viewBox="0 0 200 61" fill="none" xmlns="http://www.w3.org/2000/svg">
<path d="M32.7776 28.444V33.8691C32.7776 30.8994 30.4018 28.4874 27.4321 28.444H32.7776Z" fill="#114D33"/>
<path d="M27.9103 39.2942H26.7948C26.7586 39.2942 26.7224 39.2797 26.6862 39.2725H26.7948C24.0714 39.0045 21.9274 36.6794 21.9274 33.8763C21.9347 30.9139 24.3249 28.5092 27.2729 28.4657H5.77522C2.7838 28.4657 0.350102 30.8994 0.350102 33.8908C0.350102 36.8822 2.7838 39.3159 5.77522 39.3159H13.721L1.93635 51.7379C-0.185891 53.8457 -0.171405 57.2862 1.93635 59.4084C4.03687 61.5307 7.48461 61.5307 9.60685 59.4084L21.9202 46.4504V55.5696C21.9202 58.561 24.3539 60.9947 27.3453 60.9947C30.3367 60.9947 32.7704 58.561 32.7704 55.5696V33.8908C32.7704 36.6939 30.6482 39.0262 27.903 39.2942H27.9103Z" fill="#114D33"/>
<path d="M54.3767 33.8473C54.3767 36.8388 51.943 39.2725 48.9516 39.2725H27.9103C30.6554 39.0045 32.7777 36.6722 32.7777 33.8691C32.7777 31.066 30.4019 28.4874 27.4322 28.444H27.2439C24.2959 28.4874 21.8984 30.8994 21.8984 33.8691V12.1469C21.8984 9.13371 24.3321 6.72174 27.3236 6.72174C30.315 6.72174 32.7487 9.15544 32.7487 12.1469V21.2443L45.062 8.28626C47.1843 6.16402 50.632 6.16402 52.7325 8.28626C54.8548 10.4085 54.8548 13.8562 52.7325 15.9568L40.9552 28.3788H48.8937C51.8851 28.3788 54.3188 30.8125 54.3188 33.8039L54.3622 33.8473H54.3767Z" fill="#114D33"/>
<path d="M27.9099 39.2725C27.7216 39.2725 27.5405 39.2942 27.3522 39.2942C27.1638 39.2942 26.9828 39.2942 26.7944 39.2725H27.9099Z" fill="#114D33"/>
<path d="M67.6825 4.54155H72.2819L72.1588 7.57643H72.1805C72.7165 5.67873 73.8899 4.36047 76.0556 4.36047C78.2213 4.36047 79.583 5.43246 79.8728 7.43157H79.8945C80.3725 5.61354 81.6256 4.36047 83.7696 4.36047C85.9135 4.36047 87.6447 5.92499 87.6447 8.71361V16.0364H83.0453V9.86527C83.0453 8.79328 82.5527 8.1921 81.6618 8.1921C80.7709 8.1921 79.909 8.97436 79.909 10.6258V16.0292H75.3096V9.85802C75.3096 8.78604 74.8533 8.18486 73.9261 8.18486C72.999 8.18486 72.2312 9.01058 72.2312 10.6837V16.0292H67.6318V4.54155H67.6753H67.6825Z" fill="#114D33"/>
<path d="M89.8608 4.54159H94.4602L94.3154 7.75755H94.3588C94.8369 5.71498 95.9234 4.35327 98.1325 4.35327C100.342 4.35327 101.725 5.83812 101.725 8.93094C101.725 12.0238 101.66 10.9301 101.602 11.5892H97.64C97.6834 11.0532 97.6834 10.4375 97.6834 10.0826C97.6834 8.76435 97.1909 8.22836 96.3435 8.22836C95.496 8.22836 94.4675 9.17721 94.4675 11.2198V16.0437H89.8681V4.55608V4.53435L89.8608 4.54159Z" fill="#114D33"/>
<path d="M112.011 8.74974C112.011 7.69949 111.352 7.16349 110.236 7.16349C109.121 7.16349 108.462 7.67776 108.259 9.03947H112.011V8.72801V8.74974ZM115.951 10.9299H108.215C108.339 12.5814 108.998 13.197 110.258 13.197C111.518 13.197 111.953 12.7842 112.033 11.7919H115.973C115.929 14.5153 113.908 16.1885 110.07 16.1885C106.231 16.1885 103.594 13.8127 103.594 10.3722C103.594 6.93171 106.093 4.33142 110.113 4.33142C114.133 4.33142 115.973 6.14945 115.973 9.83622V10.9082L115.951 10.9299Z" fill="#114D33"/>
<path d="M118.327 0.00012207H122.202L122.984 1.8761H123.028L123.81 0.00012207H127.685L125.331 3.50581H120.63L118.276 0.00012207H118.32H118.327ZM117.581 13.2841L122.513 8.04726V8.0038H117.769V4.54158H128.25V7.24327L123.281 12.5453L128.25 12.567V16.0292H117.588V13.2841H117.581Z" fill="#114D33"/>
<path d="M137.927 11.8789V11.5674H135.551C134.79 11.5674 134.334 11.9369 134.334 12.4946C134.334 13.0523 134.892 13.5883 135.819 13.5883C136.746 13.5883 137.919 12.9726 137.919 11.8572V11.8789H137.927ZM130.147 12.8495C130.147 11.0315 131.386 9.7132 134.233 9.7132H137.905V8.86575C137.905 7.79377 137.347 7.33745 136.13 7.33745C134.913 7.33745 134.544 7.8155 134.544 8.59776C134.544 9.38002 134.544 8.8223 134.566 9.07581H130.546C130.502 8.85127 130.481 8.56154 130.481 8.31527C130.481 5.88158 132.422 4.35327 136.362 4.35327C140.302 4.35327 142.512 6.20752 142.512 9.26413V16.0292H137.912C137.977 15.5367 138.057 14.5661 138.057 13.8418H138.035C137.688 15.2832 136.55 16.2176 134.406 16.2176C132.262 16.2176 130.155 14.8558 130.155 12.8785V12.8567L130.147 12.8495Z" fill="#114D33"/>
<path d="M68.1386 30.6966H69.848C69.848 32.2249 70.7751 33.1303 73.1726 33.1303C75.5701 33.1303 76.6783 32.406 76.6783 31.1674C76.6783 29.9288 76.5334 30.262 75.9539 29.9723C75.418 29.726 74.2011 29.5811 72.7959 29.4363C70.92 29.2697 69.7611 29.0451 69.0802 28.5309C68.4428 28.0528 68.1313 27.2344 68.1313 26.3869C68.1313 24.2212 70.1087 22.816 73.1871 22.816C76.2654 22.816 78.0762 24.3226 78.0762 26.9012H76.3451C76.3233 25.1918 75.2948 24.3878 73.2523 24.3878C71.2097 24.3878 69.9928 25.1121 69.9928 26.242C69.9928 27.372 70.058 27.2706 70.7389 27.5386C71.2966 27.7631 72.4338 27.908 73.9548 28.0746C75.7511 28.2629 76.6348 28.4222 77.4171 28.8568C78.1776 29.2914 78.5542 30.1751 78.5542 31.0443C78.5542 33.2896 76.7 34.6513 73.2088 34.6513C69.7176 34.6513 68.1313 32.8333 68.1313 30.6314V30.6966H68.1386Z" fill="#114D33"/>
<path d="M90.6432 28.8205C90.6432 26.2202 89.1149 24.5325 86.6812 24.5325C84.2475 24.5325 82.7192 26.2057 82.7192 28.8205C82.7192 31.4353 84.2475 33.0505 86.6812 33.0505C89.1149 33.0505 90.6432 31.3991 90.6432 28.8205ZM80.865 28.8205C80.865 25.1917 83.1104 22.8594 86.6812 22.8594C90.2521 22.8594 92.4975 25.1917 92.4975 28.8205C92.4975 32.4493 90.2521 34.7381 86.6812 34.7381C83.1104 34.7381 80.865 32.4276 80.865 28.8205Z" fill="#114D33"/>
<path d="M95.4094 18.4193H97.2637V34.5281H95.4094V18.4193ZM100.769 23.0404H102.624V34.5281H100.769V23.0404ZM100.69 19.2233H102.689V21.5773H100.69V19.2233Z" fill="#114D33"/>
<path d="M115.458 28.9219V28.3424C115.458 26.0101 113.85 24.5253 111.315 24.5253C108.78 24.5253 107.375 26.3216 107.375 28.7118C107.375 31.1021 108.903 33.0432 111.272 33.0432C113.64 33.0432 115.436 31.4353 115.436 28.9146H115.458V28.9219ZM105.535 28.7118C105.535 25.2858 107.679 22.8521 111.17 22.8521C114.661 22.8521 115.031 23.8227 115.458 25.351H115.48V18.4193H117.334V34.5281H115.48C115.545 33.4995 115.56 32.4855 115.603 31.457H115.56C115.125 33.4344 113.582 34.7164 111.018 34.7164C108.454 34.7164 105.55 32.3044 105.55 28.7118H105.528H105.535Z" fill="#114D33"/>
<path d="M129.112 29.726V29.5594H124.592C122.716 29.5594 121.97 30.1171 121.97 31.2326C121.97 32.348 123.042 33.1303 124.86 33.1303C127.46 33.1303 129.112 31.812 129.112 29.7043V29.726ZM120.224 31.2326C120.224 29.6029 121.362 28.1977 124.433 28.1977H129.119V27.3502C129.119 25.3729 127.967 24.424 125.613 24.424C123.259 24.424 122.332 25.2063 122.332 26.778C122.332 28.3498 122.332 27.0026 122.354 27.1909H120.644C120.623 27.0243 120.601 26.6984 120.601 26.4883C120.601 24.1995 122.564 22.8378 125.678 22.8378C128.793 22.8378 131.002 24.5109 131.002 27.5241V34.5355H129.148C129.17 33.9995 129.213 32.9275 129.249 31.812H129.228C128.836 33.5866 127.395 34.7238 124.527 34.7238C121.659 34.7238 120.275 33.4055 120.275 31.2398H120.232L120.224 31.2326Z" fill="#114D33"/>
<path d="M134.124 23.0405H135.978L135.935 26.3651H135.956C136.492 24.366 137.666 22.8594 140.143 22.8594C142.62 22.8594 144.105 24.5688 144.105 27.3574C144.105 30.146 144.04 28.9871 143.982 29.3999H142.287C142.33 29.0523 142.367 28.4728 142.367 27.7485C142.367 25.6263 141.584 24.5325 139.687 24.5325C137.789 24.5325 135.971 26.5751 135.971 29.4434V34.5353H134.117V23.0477L134.124 23.0405Z" fill="#114D33"/>
<path d="M146.893 23.0405H148.748L148.704 26.1333H148.726C149.342 24.1342 150.957 22.8522 153.695 22.8522C156.433 22.8522 158.504 24.605 158.504 27.3502V34.5281H156.65V27.7413C156.65 25.7784 155.534 24.5253 153.057 24.5253C150.58 24.5253 148.726 26.1333 148.726 28.8785V34.5281H146.872V23.0405H146.893Z" fill="#114D33"/>
<path d="M170.97 28.8205C170.97 26.2202 169.441 24.5325 167.008 24.5325C164.574 24.5325 163.046 26.2057 163.046 28.8205C163.046 31.4353 164.574 33.0505 167.008 33.0505C169.441 33.0505 170.97 31.3991 170.97 28.8205ZM161.191 28.8205C161.191 25.1917 163.437 22.8594 167.008 22.8594C170.579 22.8594 172.824 25.1917 172.824 28.8205C172.824 32.4493 170.579 34.7381 167.008 34.7381C163.437 34.7381 161.191 32.4276 161.191 28.8205Z" fill="#114D33"/>
<path d="M174.99 30.6966H176.699C176.699 32.2249 177.626 33.1303 180.024 33.1303C182.421 33.1303 183.529 32.406 183.529 31.1674C183.529 29.9288 183.384 30.262 182.805 29.9723C182.269 29.726 181.052 29.5811 179.647 29.4363C177.771 29.2697 176.612 29.0451 175.931 28.5309C175.316 28.0528 174.982 27.2344 174.982 26.3869C174.982 24.2212 176.96 22.816 180.038 22.816C183.116 22.816 184.927 24.3226 184.927 26.9012H183.218C183.196 25.1918 182.168 24.3878 180.125 24.3878C178.082 24.3878 176.866 25.1121 176.866 26.242C176.866 27.372 176.931 27.2706 177.612 27.5386C178.169 27.7631 179.307 27.908 180.828 28.0746C182.624 28.2629 183.508 28.4222 184.29 28.8568C185.05 29.2914 185.427 30.1751 185.427 31.0443C185.427 33.2896 183.573 34.6513 180.082 34.6513C176.59 34.6513 175.004 32.8333 175.004 30.6314L174.982 30.6966H174.99Z" fill="#114D33"/>
<path d="M188.795 30.3272V24.6775H186.898V23.0478H188.426C188.795 23.0478 188.94 22.8595 188.984 22.2655L189.063 20.4475H190.65V23.0478H194.814V24.6775H190.65V30.204C190.65 31.9569 191.207 32.9854 192.939 32.9854C194.67 32.9854 194.467 32.8405 194.735 32.7609V34.3471C194.387 34.492 193.706 34.6368 192.772 34.6368C189.991 34.6368 188.788 32.8623 188.788 30.3272H188.795Z" fill="#114D33"/>
<path d="M197.48 23.0405H199.334V34.5282H197.48V23.0405ZM197.393 19.2234H199.392V21.5774H197.393V19.2234Z" fill="#114D33"/>
<path d="M121.202 45.9143L119.594 46.0012L119.703 48.1017L121.405 48.0148C122.187 47.9714 122.564 47.602 122.528 46.9139C122.491 46.2547 122.064 45.8781 121.202 45.9216V45.9143Z" fill="#114D33"/>
<path d="M143.554 44.7629L141.946 44.8499L142.055 46.9504L143.757 46.8635C144.539 46.82 144.916 46.4506 144.88 45.7625C144.844 45.1034 144.416 44.7267 143.554 44.7702V44.7629Z" fill="#114D33"/>
<path d="M135.645 45.1682L134.355 45.2334L134.493 47.8554L135.934 47.783C136.717 47.7395 137.122 47.2977 137.079 46.4285C137.035 45.5811 136.536 45.1248 135.652 45.1755L135.645 45.1682Z" fill="#114D33"/>
<path d="M81.546 47.9715L79.938 48.0512L80.0466 50.1517L81.7488 50.0648C82.531 50.0213 82.9077 49.6519 82.8715 48.9638C82.8353 48.3047 82.4079 47.9281 81.546 47.9715Z" fill="#114D33"/>
<path d="M89.948 47.421C88.7674 47.4789 87.9199 48.3988 87.9924 49.8837C88.072 51.3902 89.0136 52.2377 90.1943 52.1797C91.3749 52.1218 92.2224 51.1802 92.1427 49.6664C92.063 48.1815 91.1286 47.3558 89.948 47.4137V47.421Z" fill="#114D33"/>
<path d="M73.6364 48.3845L72.3472 48.4497L72.4848 51.0717L73.9262 50.9993C74.7084 50.9558 75.1141 50.514 75.0706 49.6448C75.0271 48.7974 74.5274 48.3411 73.6437 48.3918L73.6364 48.3845Z" fill="#114D33"/>
<path d="M186.999 46.7835L186.767 42.3724C186.557 38.3814 183.16 35.3176 179.169 35.5276L67.7331 41.3004C63.7422 41.5105 60.6783 44.9075 60.8884 48.8985L61.1201 53.3096C61.3302 57.3006 64.7272 60.3644 68.7182 60.1544L180.154 54.3816C184.145 54.1715 187.209 50.7745 186.999 46.7835ZM74.0636 52.2376L72.5426 52.3173L72.6512 54.4467L70.7897 54.5409L70.4059 47.0805L73.6146 46.9139C75.5195 46.8125 76.7074 47.6527 76.8016 49.4562C76.8885 51.1149 76.0048 52.1362 74.0564 52.2376H74.0636ZM83.0017 53.9108L82.9075 52.1072C82.8713 51.4264 82.6106 51.1439 81.908 51.1801L80.1044 51.2743L80.2493 54.0484L78.3878 54.1425L78.0039 46.6821L81.4806 46.501C83.4508 46.3996 84.559 47.1601 84.6314 48.5653C84.6821 49.5142 84.3055 50.1371 83.6101 50.3833V50.4051C84.3562 50.5354 84.7183 51.1077 84.7618 51.9479L84.8559 53.8094L82.9945 53.9035L83.0017 53.9108ZM90.2666 53.6428C88.014 53.7586 86.1887 52.4114 86.0655 49.9705C85.9424 47.5802 87.6156 46.0737 89.8682 45.9578C92.1208 45.8419 93.9461 47.1674 94.0692 49.5576C94.1924 51.9986 92.5264 53.5269 90.2666 53.6428ZM98.9946 53.0778L97.1331 53.172L96.8216 47.1746L94.6994 47.2833L94.627 45.8202L100.711 45.5015L100.784 46.9646L98.6759 47.0732L98.9873 53.0705L98.9946 53.0778ZM102.442 52.904L102.058 45.4435L103.92 45.3494L104.304 52.8098L102.442 52.904ZM110.772 52.4694L108.461 52.5925L105.238 45.2769L107.36 45.1683L109.656 50.8686H109.678L111.33 44.9655L113.235 44.8641L110.772 52.4694ZM122.651 51.8537L122.557 50.0502C122.52 49.3693 122.26 49.0868 121.557 49.123L119.753 49.2172L119.898 51.9913L118.037 52.0855L117.653 44.625L121.13 44.444C123.1 44.3426 124.208 45.1031 124.28 46.5083C124.331 47.4571 123.954 48.08 123.259 48.3263V48.348C124.005 48.4784 124.367 49.0506 124.411 49.8908L124.505 51.7523L122.643 51.8465L122.651 51.8537ZM126.084 51.6799L125.7 44.2194L130.98 43.9442L131.053 45.4073L127.627 45.5811L127.714 47.2615L130.365 47.1239L130.423 48.2611L127.772 48.3987L127.859 50.1226L131.386 49.9415L131.458 51.4046L126.077 51.6799H126.084ZM136.072 49.0216L134.551 49.1013L134.66 51.2308L132.798 51.325L132.414 43.8645L135.623 43.6979C137.528 43.5965 138.716 44.4367 138.81 46.2403C138.897 47.8989 138.013 48.9202 136.065 49.0216H136.072ZM145.01 50.6948L144.916 48.8913C144.88 48.2104 144.619 47.9279 143.917 47.9641L142.113 48.0583L142.258 50.8324L140.396 50.9266L140.013 43.4661L143.489 43.2851C145.459 43.1837 146.568 43.9442 146.64 45.3494C146.691 46.2982 146.314 46.9211 145.619 47.1674V47.1891C146.365 47.3195 146.727 47.8917 146.77 48.7319L146.865 50.5934L145.003 50.6876L145.01 50.6948ZM148.436 50.521L148.052 43.0605L153.333 42.7853L153.405 44.2484L149.979 44.4295L150.066 46.1099L152.717 45.9723L152.775 47.1094L150.124 47.2471L150.211 48.9709L153.738 48.7899L153.811 50.253L148.429 50.5354L148.436 50.521ZM158.28 50.1226C155.716 50.253 154.97 48.9854 154.897 47.6165L156.556 47.5295C156.599 48.3335 156.954 48.8405 158.2 48.7754C159.46 48.7102 159.721 48.2394 159.692 47.7686C159.678 47.4499 159.533 47.2543 159.229 47.1674C158.895 47.0732 158.12 47.0008 157.49 46.9428C156.751 46.8704 155.991 46.7618 155.549 46.501C155.057 46.2185 154.781 45.7115 154.745 44.9944C154.673 43.5893 155.723 42.5535 157.874 42.4449C160.243 42.3217 161.068 43.2706 161.155 44.9437L159.511 45.0307C159.468 44.1832 159.004 43.7414 157.983 43.7921C156.976 43.8428 156.563 44.2412 156.585 44.7409C156.607 45.1031 156.715 45.2987 156.983 45.4001C157.273 45.5087 158.062 45.5956 158.7 45.6608C159.547 45.755 160.185 45.8564 160.641 46.0737C161.192 46.3272 161.503 46.8487 161.539 47.5513C161.604 48.8188 160.952 49.9922 158.287 50.1298L158.28 50.1226ZM163.147 49.7604L162.763 42.3L164.625 42.2058L165.009 49.6663L163.147 49.7604ZM169.427 49.5431C167.5 49.6445 166.515 48.6377 166.421 46.769C166.399 46.3924 166.399 45.9216 166.399 45.6681L168.007 45.5884C168.022 45.8274 168.029 46.2692 168.051 46.6097C168.101 47.5513 168.485 48.1307 169.297 48.0873C169.985 48.051 170.456 47.4571 170.398 46.2692L170.173 41.9161L172.035 41.8219L172.252 45.994C172.368 48.2756 171.339 49.449 169.434 49.5504L169.427 49.5431ZM173.954 49.1955L173.57 41.735L178.85 41.4598L178.923 42.9229L175.497 43.0967L175.584 44.7771L178.235 44.6395L178.293 45.7767L175.642 45.9143L175.729 47.6382L179.256 47.4571L179.328 48.9202L173.947 49.1955H173.954Z" fill="#114D33"/>
</svg>
